<svg width="14" height="10" viewBox="0 0 14 10" fill="none" xmlns="http://www.w3.org/2000/svg">
<path d="M1.14 9.24C1.036 8.008 0.94 6.74 0.852 5.436C0.764 4.128 0.696 2.86 0.648 1.632C0.636 1.356 0.676 1.136 0.768 0.972C0.864 0.803999 1.044 0.719999 1.308 0.719999C1.572 0.719999 1.748 0.801999 1.836 0.965999C1.928 1.13 1.976 1.336 1.98 1.584C1.992 1.944 1.992 2.328 1.98 2.736C1.968 3.14 1.968 3.552 1.98 3.972C1.988 4.14 2.034 4.24 2.118 4.272C2.206 4.304 2.312 4.264 2.436 4.152C3.06 3.592 3.684 3.016 4.308 2.424C4.932 1.832 5.508 1.3 6.036 0.827999C6.14 0.735999 6.238 0.663999 6.33 0.611999C6.422 0.556 6.506 0.528 6.582 0.528C6.638 0.528 6.692 0.542 6.744 0.569999C6.796 0.597999 6.838 0.635999 6.87 0.684C6.902 0.732 6.918 0.786 6.918 0.845999C6.918 0.93 6.892 1.022 6.84 1.122C6.792 1.222 6.726 1.322 6.642 1.422C6.346 1.79 5.998 2.196 5.598 2.64C5.202 3.084 4.8 3.552 4.392 4.044C4.316 4.132 4.272 4.226 4.26 4.326C4.252 4.426 4.284 4.528 4.356 4.632C4.864 5.312 5.282 5.878 5.61 6.33C5.942 6.778 6.204 7.14 6.396 7.416C6.592 7.688 6.736 7.9 6.828 8.052C6.92 8.204 6.978 8.32 7.002 8.4C7.03 8.476 7.044 8.544 7.044 8.604C7.044 8.748 6.996 8.866 6.9 8.958C6.808 9.05 6.692 9.096 6.552 9.096C6.472 9.096 6.378 9.076 6.27 9.036C6.162 9 6 8.922 5.784 8.802C5.572 8.682 5.268 8.502 4.872 8.262C4.48 8.022 3.956 7.7 3.3 7.296C3.128 7.188 2.99 7.114 2.886 7.074C2.786 7.03 2.684 7.008 2.58 7.008C2.436 7.008 2.328 7.056 2.256 7.152C2.184 7.244 2.144 7.38 2.136 7.56C2.124 7.86 2.118 8.16 2.118 8.46C2.122 8.76 2.12 8.996 2.112 9.168C2.1 9.42 2.058 9.606 1.986 9.726C1.914 9.85 1.796 9.912 1.632 9.912C1.484 9.912 1.37 9.852 1.29 9.732C1.21 9.612 1.16 9.448 1.14 9.24ZM6.168 5.484C5.952 5.484 5.786 5.426 5.67 5.31C5.554 5.194 5.496 5.02 5.496 4.788C5.496 4.608 5.548 4.458 5.652 4.338C5.76 4.214 5.916 4.152 6.12 4.152C6.336 4.152 6.51 4.206 6.642 4.314C6.774 4.418 6.84 4.56 6.84 4.74C6.84 4.984 6.774 5.17 6.642 5.298C6.51 5.422 6.352 5.484 6.168 5.484ZM4.89 1.092C5.182 1.308 5.47 1.54 5.754 1.788C6.042 2.032 6.324 2.28 6.6 2.532C6.768 2.68 6.876 2.818 6.924 2.946C6.976 3.074 6.948 3.202 6.84 3.33C6.728 3.47 6.6 3.522 6.456 3.486C6.312 3.45 6.156 3.364 5.988 3.228C5.684 2.98 5.384 2.734 5.088 2.49C4.796 2.242 4.51 1.98 4.23 1.704C4.094 1.572 4.012 1.446 3.984 1.326C3.96 1.206 3.996 1.096 4.092 0.995999C4.184 0.892 4.3 0.854 4.44 0.882C4.58 0.905999 4.73 0.975999 4.89 1.092ZM4.764 2.604L4.164 3.18C4.092 3.124 4.054 3.046 4.05 2.946C4.046 2.842 4.102 2.736 4.218 2.628C4.322 2.512 4.424 2.464 4.524 2.484C4.624 2.504 4.704 2.544 4.764 2.604ZM1.512 8.112C1.556 8.108 1.596 8.108 1.632 8.112C1.672 8.112 1.712 8.112 1.752 8.112C1.856 8.112 1.934 8.142 1.986 8.202C2.038 8.258 2.064 8.352 2.064 8.484C2.064 8.628 2.038 8.732 1.986 8.796C1.934 8.86 1.856 8.892 1.752 8.892C1.716 8.892 1.682 8.892 1.65 8.892C1.618 8.892 1.584 8.892 1.548 8.892C1.436 8.892 1.342 8.862 1.266 8.802C1.19 8.738 1.152 8.632 1.152 8.484C1.152 8.344 1.186 8.248 1.254 8.196C1.326 8.14 1.412 8.112 1.512 8.112ZM1.38 2.1C1.284 2.1 1.21 2.076 1.158 2.028C1.106 1.98 1.08 1.92 1.08 1.848C1.08 1.756 1.102 1.688 1.146 1.644C1.19 1.596 1.272 1.572 1.392 1.572C1.452 1.572 1.502 1.594 1.542 1.638C1.586 1.682 1.608 1.744 1.608 1.824C1.608 1.908 1.588 1.976 1.548 2.028C1.508 2.076 1.452 2.1 1.38 2.1ZM4.44 7.152C4.548 7.152 4.642 7.108 4.722 7.02C4.806 6.928 4.848 6.808 4.848 6.66C4.848 6.54 4.81 6.438 4.734 6.354C4.658 6.27 4.564 6.228 4.452 6.228C4.26 6.228 4.124 6.268 4.044 6.348C3.964 6.428 3.924 6.544 3.924 6.696C3.924 6.832 3.964 6.942 4.044 7.026C4.128 7.11 4.26 7.152 4.44 7.152ZM3.156 6.084C3.312 6.084 3.44 6.026 3.54 5.91C3.644 5.794 3.696 5.668 3.696 5.532C3.696 5.328 3.634 5.17 3.51 5.058C3.386 4.942 3.228 4.884 3.036 4.884C2.892 4.884 2.766 4.938 2.658 5.046C2.55 5.15 2.496 5.288 2.496 5.46C2.496 5.64 2.548 5.79 2.652 5.91C2.756 6.026 2.924 6.084 3.156 6.084ZM10.6605 3.348C10.6045 3.876 10.5705 4.266 10.5585 4.518C10.5465 4.77 10.5505 4.94 10.5705 5.028C10.5905 5.116 10.6205 5.18 10.6605 5.22C10.7085 5.268 10.7645 5.298 10.8285 5.31C10.8925 5.322 10.9845 5.328 11.1045 5.328C11.4005 5.328 11.6565 5.282 11.8725 5.19C12.0925 5.094 12.2745 4.958 12.4185 4.782C12.5625 4.602 12.6685 4.384 12.7365 4.128C12.8045 3.872 12.8365 3.584 12.8325 3.264C12.8285 2.68 12.6985 2.218 12.4425 1.878C12.1865 1.538 11.8205 1.368 11.3445 1.368C11.2605 1.368 11.1905 1.376 11.1345 1.392C11.0825 1.408 11.0325 1.44 10.9845 1.488C10.9565 1.516 10.9305 1.554 10.9065 1.602C10.8865 1.646 10.8665 1.726 10.8465 1.842C10.8265 1.958 10.8005 2.134 10.7685 2.37C10.7405 2.606 10.7045 2.932 10.6605 3.348ZM8.2845 8.328C8.2765 7.604 8.2785 6.85 8.2905 6.066C8.3025 5.278 8.3205 4.516 8.3445 3.78C8.3725 3.04 8.4045 2.38 8.4405 1.8C8.4685 1.396 8.5305 1.102 8.6265 0.917999C8.7225 0.734 8.8865 0.616 9.1185 0.564C9.3505 0.512 9.6805 0.484 10.1085 0.48C10.5485 0.472 10.9285 0.482 11.2485 0.51C11.5685 0.534 11.8425 0.576 12.0705 0.636C12.3025 0.691999 12.5005 0.765999 12.6645 0.857999C12.8285 0.946 12.9725 1.052 13.0965 1.176C13.3365 1.416 13.5145 1.71 13.6305 2.058C13.7465 2.402 13.8045 2.8 13.8045 3.252C13.8045 3.772 13.7405 4.202 13.6125 4.542C13.4845 4.878 13.3165 5.152 13.1085 5.364C12.8885 5.584 12.6645 5.748 12.4365 5.856C12.2085 5.964 11.9505 6.038 11.6625 6.078C11.3745 6.118 11.0285 6.148 10.6245 6.168C10.3085 6.18 10.0585 6.208 9.8745 6.252C9.6905 6.296 9.5585 6.372 9.4785 6.48C9.4025 6.584 9.3645 6.736 9.3645 6.936C9.3645 7.212 9.3765 7.48 9.4005 7.74C9.4245 8 9.4365 8.236 9.4365 8.448C9.4365 8.668 9.3965 8.852 9.3165 9C9.2405 9.144 9.0885 9.216 8.8605 9.216C8.6525 9.216 8.5045 9.144 8.4165 9C8.3285 8.86 8.2845 8.636 8.2845 8.328ZM12.7965 5.052C12.8565 5.092 12.8845 5.14 12.8805 5.196C12.8765 5.252 12.8565 5.308 12.8205 5.364C12.7845 5.416 12.7345 5.456 12.6705 5.484C12.6065 5.508 12.5445 5.508 12.4845 5.484C12.4685 5.476 12.4525 5.468 12.4365 5.46C12.4245 5.452 12.4085 5.44 12.3885 5.424C12.3485 5.38 12.3285 5.334 12.3285 5.286C12.3325 5.234 12.3525 5.184 12.3885 5.136C12.4325 5.08 12.4845 5.036 12.5445 5.004C12.6085 4.972 12.6645 4.972 12.7125 5.004C12.7245 5.008 12.7385 5.016 12.7545 5.028C12.7705 5.036 12.7845 5.044 12.7965 5.052ZM13.1085 1.788C13.1685 1.768 13.2245 1.772 13.2765 1.8C13.3325 1.824 13.3845 1.9 13.4325 2.028C13.4925 2.164 13.5105 2.262 13.4865 2.322C13.4625 2.378 13.4285 2.412 13.3845 2.424C13.3685 2.428 13.3525 2.434 13.3365 2.442C13.3245 2.446 13.3085 2.452 13.2885 2.46C13.2245 2.48 13.1485 2.48 13.0605 2.46C12.9725 2.44 12.9065 2.376 12.8625 2.268C12.8185 2.156 12.8145 2.062 12.8505 1.986C12.8905 1.91 12.9365 1.86 12.9885 1.836C13.0085 1.828 13.0285 1.82 13.0485 1.812C13.0725 1.8 13.0925 1.792 13.1085 1.788ZM10.1565 6.876C10.4525 6.912 10.6705 6.964 10.8105 7.032C10.9505 7.1 11.0205 7.208 11.0205 7.356C11.0205 7.54 10.9285 7.654 10.7445 7.698C10.5645 7.742 10.3325 7.756 10.0485 7.74C9.7125 7.716 9.3785 7.686 9.0465 7.65C8.7145 7.614 8.3805 7.572 8.0445 7.524C7.7805 7.488 7.5865 7.438 7.4625 7.374C7.3385 7.31 7.2765 7.204 7.2765 7.056C7.2765 6.892 7.3545 6.79 7.5105 6.75C7.6705 6.71 7.8845 6.696 8.1525 6.708C8.4885 6.724 8.8225 6.746 9.1545 6.774C9.4865 6.798 9.8205 6.832 10.1565 6.876ZM9.6285 2.52C9.7605 2.52 9.8705 2.478 9.9585 2.394C10.0505 2.306 10.0965 2.188 10.0965 2.04C10.0965 1.888 10.0565 1.774 9.9765 1.698C9.8965 1.622 9.7845 1.584 9.6405 1.584C9.4685 1.584 9.3445 1.628 9.2685 1.716C9.1965 1.804 9.1605 1.908 9.1605 2.028C9.1605 2.176 9.1985 2.296 9.2745 2.388C9.3505 2.476 9.4685 2.52 9.6285 2.52ZM9.4965 4.248C9.6885 4.248 9.8325 4.202 9.9285 4.11C10.0245 4.014 10.0725 3.904 10.0725 3.78C10.0725 3.588 10.0285 3.444 9.9405 3.348C9.8525 3.252 9.7245 3.204 9.5565 3.204C9.3845 3.204 9.2485 3.248 9.1485 3.336C9.0525 3.424 9.0045 3.552 9.0045 3.72C9.0045 3.88 9.0525 4.008 9.1485 4.104C9.2445 4.2 9.3605 4.248 9.4965 4.248Z" fill="white"/>
</svg>
